# xmcd
#
# Track frame offsets: 
#        150
#        17842
#        38265
#        58972
#        77627
#        94950
#        119857
#        140592
#        158057
#        178587
#        199595
#        216537
#        233275
#
# Disc length: 3301 seconds
#
# Revision: 16
# Processed by: cddbd v1.5.2PL0 Copyright (c) Steve Scherf et al.
# Submitted via: ExactAudioCopy v1.0b2
#
DISCID=b10ce30d
DTITLE=島谷ひとみ - PRIMA ROSA
DYEAR=2007
DGENRE=JPop
TTITLE0=Ramblin'
TTITLE1=君の声
TTITLE2=晴れた日には
TTITLE3=Dragonfly
TTITLE4=サイケデリック＊フューチャー
TTITLE5=Camellia－カメリア－(PRIMA ROSA Version)
TTITLE6=Destiny－太陽の花－
TTITLE7=プラハの女
TTITLE8=恋水－tears of love－
TTITLE9=PASIO～パッシオ
TTITLE10=El Dorado
TTITLE11=春待人
TTITLE12=Brand new Dream
EXTD=E0=Ramblin'Ramblin'EEXTD=??@EV????V???E?[E?XXXXEVXX?GEJEVvE?X?E?[
EXTD=EETTITLE12=EuEXEXXEEEEXEAEXEXEXEEXTD=YEAR: 2007
EXTT0=
EXTT1=
EXTT2=
EXTT3=
EXTT4=
EXTT5=
EXTT6=
EXTT7=
EXTT8=
EXTT9=
EXTT10=
EXTT11=
EXTT12=
PLAYORDER=
